<?xml version="1.0" encoding="UTF-8" standalone="no"?>
<svg
   xmlns:dc="http://purl.org/dc/elements/1.1/"
   xmlns:cc="http://creativecommons.org/ns#"
   xmlns:rdf="http://www.w3.org/1999/02/22-rdf-syntax-ns#"
   xmlns:svg="http://www.w3.org/2000/svg"
   xmlns="http://www.w3.org/2000/svg"
   id="svg897"
   version="1.1"
   viewBox="0 0 83.385254 9.4615002"
   height="9.4615002mm"
   width="83.385254mm">
  <defs
     id="defs891" />
  <metadata
     id="metadata894">
    <rdf:RDF>
      <cc:Work
         rdf:about="">
        <dc:format>image/svg+xml</dc:format>
        <dc:type
           rdf:resource="http://purl.org/dc/dcmitype/StillImage" />
        <dc:title></dc:title>
      </cc:Work>
    </rdf:RDF>
  </metadata>
  <g
     transform="translate(-23.900412,-91.191849)"
     id="layer1">
    <g
       id="flowRoot1442"
       style="font-style:normal;font-variant:normal;font-weight:bold;font-stretch:condensed;font-size:40px;line-height:1.25;font-family:DieFONT;-inkscape-font-specification:'DieFONT, Bold Condensed';font-variant-ligatures:normal;font-variant-caps:normal;font-variant-numeric:normal;font-feature-settings:normal;text-align:start;letter-spacing:0px;word-spacing:0px;writing-mode:lr-tb;text-anchor:start;fill:#000000;fill-opacity:1;stroke:none"
       transform="scale(0.26458333)"
       aria-label="Kreisverband Flensburg">
      <path
         id="path824"
         d="m 96.092266,358.18211 4.320004,-13.52 h 6 l -4.84,14 4.92,14.56 h -5.96 l -4.440004,-14.08 h -0.08 v 14.08 h -5.68 v -28.56 h 5.68 v 13.52 z" />
      <path
         id="path826"
         d="m 113.34102,352.58211 v 4.08 h 0.08 q 0.76,-1.72 1.36,-2.6 0.64,-0.88 1.36,-1.24 0.72,-0.4 1.84,-0.56 v 6.92 h -0.08 q -0.48,-0.12 -1.04,-0.12 -1.44,0 -2.4,1 -0.92,1 -0.92,2.8 v 10.36 h -5.52 v -20.64 z" />
      <path
         id="path828"
         d="m 124.74539,367.46211 q 0,1.84 1.48,1.84 1.44,0 1.44,-1.84 v -1.12 h 5.08 v 1.84 q 0,2.8 -1.64,4.2 -1.64,1.4 -5.12,1.4 -3.48,0 -5.12,-1.4 -1.64,-1.4 -1.64,-4.2 v -9.24 q 0,-3.64 1.52,-5.28 1.56,-1.64 5.24,-1.64 3.68,0 5.2,1.64 1.56,1.64 1.56,5.28 v 5.32 h -8 z m 2.92,-9 q 0,-0.96 -0.4,-1.44 -0.36,-0.52 -1.04,-0.52 -0.72,0 -1.12,0.52 -0.36,0.48 -0.36,1.44 v 1.88 h 2.92 z" />
      <path
         id="path830"
         d="m 135.72477,344.66211 h 5.04 v 5.44 h -5.04 z m 5.28,28.56 h -5.52 v -20.64 h 5.52 z" />
      <path
         id="path832"
         d="m 151.43477,357.86211 q 0,-0.6 -0.4,-0.96 -0.4,-0.4 -0.96,-0.4 -0.6,0 -0.96,0.32 -0.32,0.32 -0.32,0.92 0,0.96 0.72,1.56 0.76,0.56 2.4,1.4 1.56,0.76 2.56,1.44 1.04,0.68 1.76,1.88 0.72,1.16 0.72,2.88 0.12,3.44 -1.52,5.16 -1.64,1.72 -5.2,1.72 -3.44,0 -5.08,-1.56 -1.64,-1.6 -1.64,-4.52 v -1.6 h 5.28 v 0.88 q 0,1.28 0.36,1.8 0.36,0.52 1.08,0.52 0.64,0 0.92,-0.36 0.28,-0.4 0.28,-1.28 0,-1.16 -0.72,-1.76 -0.72,-0.64 -2.32,-1.44 -1.52,-0.72 -2.52,-1.4 -0.96,-0.68 -1.68,-2 -0.68,-1.36 -0.68,-3.44 0,-2.6 1.68,-4.08 1.68,-1.52 5.04,-1.52 3.08,0 4.64,1.32 1.6,1.28 1.6,3.88 v 1.92 h -5.04 z" />
      <path
         id="path834"
         d="m 165.67102,368.18211 h 0.08 l 2,-15.6 h 5.68 l -4.56,20.64 h -6.36 l -4.56,-20.64 h 5.68 z" />
      <path
         id="path836"
         d="m 180.29227,367.46211 q 0,1.84 1.48,1.84 1.44,0 1.44,-1.84 v -1.12 h 5.08 v 1.84 q 0,2.8 -1.64,4.2 -1.64,1.4 -5.12,1.4 -3.48,0 -5.12,-1.4 -1.64,-1.4 -1.64,-4.2 v -9.24 q 0,-3.64 1.52,-5.28 1.56,-1.64 5.24,-1.64 3.68,0 5.2,1.64 1.56,1.64 1.56,5.28 v 5.32 h -8 z m 2.92,-9 q 0,-0.96 -0.4,-1.44 -0.36,-0.52 -1.04,-0.52 -0.72,0 -1.12,0.52 -0.36,0.48 -0.36,1.44 v 1.88 h 2.92 z" />
      <path
         id="path838"
         d="m 196.23164,352.58211 v 4.08 h 0.08 q 0.76,-1.72 1.36,-2.6 0.64,-0.88 1.36,-1.24 0.72,-0.4 1.84,-0.56 v 6.92 h -0.08 q -0.48,-0.12 -1.04,-0.12 -1.44,0 -2.4,1 -0.92,1 -0.92,2.8 v 10.36 h -5.52 v -20.64 z" />
      <path
         id="path840"
         d="m 207.91602,354.74211 h 0.08 q 0.28,-1.16 1.36,-1.92 1.08,-0.8 2.72,-0.8 1.76,0 2.84,1.24 1.12,1.2 1.12,3.28 v 12.72 q 0,2.08 -1.12,3.32 -1.08,1.2 -2.84,1.2 -1.6,0 -2.8,-0.92 -1.16,-0.92 -1.52,-2.36 h -0.08 v 2.72 h -5.28 v -28.56 h 5.52 z m 2.64,3.52 q 0,-1.76 -1.16,-1.76 -0.6,0 -1.04,0.48 -0.44,0.44 -0.44,1.28 v 9.28 q 0,0.84 0.44,1.32 0.44,0.44 1.04,0.44 1.16,0 1.16,-1.76 z" />
      <path
         id="path842"
         d="m 218.95852,357.22211 q 0,-2.48 1.68,-3.84 1.72,-1.36 4.8,-1.36 3.12,0 4.8,1.36 1.68,1.36 1.68,3.84 v 12.08 q 0,1.2 0.16,1.96 0.16,0.76 0.48,1.96 h -5.32 q -0.36,-0.88 -0.36,-2.24 h -0.08 q -1.04,2.8 -3.96,2.8 -2.36,0 -3.48,-1.36 -1.08,-1.4 -1.08,-4.56 v -1.2 q 0,-2.28 0.76,-3.56 0.76,-1.28 1.8,-1.8 1.04,-0.52 2.68,-0.96 1.16,-0.32 1.76,-0.56 0.6,-0.24 1,-0.72 0.4,-0.52 0.4,-1.36 0,-0.64 -0.32,-1.12 -0.32,-0.48 -0.96,-0.48 -1,0 -1.32,0.68 -0.28,0.64 -0.28,2.4 h -4.84 z m 6.72,6.64 q -1.08,0.72 -1.48,1.32 -0.4,0.56 -0.4,1.88 v 0.52 q 0,0.92 0.4,1.32 0.4,0.4 1.2,0.4 0.36,0 0.68,-0.32 0.36,-0.36 0.36,-1 v -4.64 z" />
      <path
         id="path844"
         d="m 240.09789,352.58211 v 2.4 h 0.08 q 0.48,-1.24 1.6,-2.08 1.12,-0.88 2.56,-0.88 1.88,0 3,1.24 1.12,1.2 1.12,3.72 v 16.24 h -5.48 v -14.72 q 0,-2 -1.24,-2 -0.76,0 -1.08,0.52 -0.32,0.52 -0.32,1.88 v 14.32 h -5.52 v -20.64 z" />
      <path
         id="path846"
         d="m 259.78039,370.38211 q -0.44,1.52 -1.64,2.48 -1.16,0.92 -2.76,0.92 -1.76,0 -2.88,-1.2 -1.12,-1.24 -1.12,-3.32 v -12.72 q 0,-2.08 1.12,-3.28 1.12,-1.24 2.88,-1.24 1.64,0 2.68,0.8 1.08,0.76 1.4,1.92 h 0.08 v -10.08 h 5.48 v 28.56 h -5.24 z m -2.88,-2.84 q 0,0.92 0.28,1.36 0.28,0.4 0.88,0.4 0.56,0 1,-0.44 0.48,-0.48 0.48,-1.32 v -9.28 q 0,-0.84 -0.48,-1.28 -0.44,-0.48 -1,-0.48 -0.6,0 -0.88,0.44 -0.28,0.4 -0.28,1.32 z" />
      <path
         id="path848"
         d="m 288.37852,344.66211 v 5.2 h -5.96 v 5.84 h 5.68 v 5.2 h -5.68 v 12.32 h -5.68 v -28.56 z" />
      <path
         id="path850"
         d="m 296.55164,373.22211 h -5.52 v -28.56 h 5.52 z" />
      <path
         id="path852"
         d="m 304.90164,367.46211 q 0,1.84 1.48,1.84 1.44,0 1.44,-1.84 v -1.12 h 5.08 v 1.84 q 0,2.8 -1.64,4.2 -1.64,1.4 -5.12,1.4 -3.48,0 -5.12,-1.4 -1.64,-1.4 -1.64,-4.2 v -9.24 q 0,-3.64 1.52,-5.28 1.56,-1.64 5.24,-1.64 3.68,0 5.2,1.64 1.56,1.64 1.56,5.28 v 5.32 h -8 z m 2.92,-9 q 0,-0.96 -0.4,-1.44 -0.36,-0.52 -1.04,-0.52 -0.72,0 -1.12,0.52 -0.36,0.48 -0.36,1.44 v 1.88 h 2.92 z" />
      <path
         id="path854"
         d="m 320.80102,352.58211 v 2.4 h 0.08 q 0.48,-1.24 1.6,-2.08 1.12,-0.88 2.56,-0.88 1.88,0 3,1.24 1.12,1.2 1.12,3.72 v 16.24 h -5.48 v -14.72 q 0,-2 -1.24,-2 -0.76,0 -1.08,0.52 -0.32,0.52 -0.32,1.88 v 14.32 h -5.52 v -20.64 z" />
      <path
         id="path856"
         d="m 339.40352,357.86211 q 0,-0.6 -0.4,-0.96 -0.4,-0.4 -0.96,-0.4 -0.6,0 -0.96,0.32 -0.32,0.32 -0.32,0.92 0,0.96 0.72,1.56 0.76,0.56 2.4,1.4 1.56,0.76 2.56,1.44 1.04,0.68 1.76,1.88 0.72,1.16 0.72,2.88 0.12,3.44 -1.52,5.16 -1.64,1.72 -5.2,1.72 -3.44,0 -5.08,-1.56 -1.64,-1.6 -1.64,-4.52 v -1.6 h 5.28 v 0.88 q 0,1.28 0.36,1.8 0.36,0.52 1.08,0.52 0.64,0 0.92,-0.36 0.28,-0.4 0.28,-1.28 0,-1.16 -0.72,-1.76 -0.72,-0.64 -2.32,-1.44 -1.52,-0.72 -2.52,-1.4 -0.96,-0.68 -1.68,-2 -0.68,-1.36 -0.68,-3.44 0,-2.6 1.68,-4.08 1.68,-1.52 5.04,-1.52 3.08,0 4.64,1.32 1.6,1.28 1.6,3.88 v 1.92 h -5.04 z" />
      <path
         id="path858"
         d="m 352.75977,354.74211 h 0.08 q 0.28,-1.16 1.36,-1.92 1.08,-0.8 2.72,-0.8 1.76,0 2.84,1.24 1.12,1.2 1.12,3.28 v 12.72 q 0,2.08 -1.12,3.32 -1.08,1.2 -2.84,1.2 -1.6,0 -2.8,-0.92 -1.16,-0.92 -1.52,-2.36 h -0.08 v 2.72 h -5.28 v -28.56 h 5.52 z m 2.64,3.52 q 0,-1.76 -1.16,-1.76 -0.6,0 -1.04,0.48 -0.44,0.44 -0.44,1.28 v 9.28 q 0,0.84 0.44,1.32 0.44,0.44 1.04,0.44 1.16,0 1.16,-1.76 z" />
      <path
         id="path860"
         d="m 372.20227,373.22211 v -2.4 h -0.08 q -0.52,1.24 -1.64,2.12 -1.12,0.84 -2.52,0.84 -1.88,0 -3.04,-1.2 -1.12,-1.24 -1.12,-3.76 v -16.24 h 5.52 v 14.72 q 0,1.08 0.28,1.56 0.32,0.44 0.96,0.44 0.76,0 1.08,-0.52 0.32,-0.52 0.32,-1.88 v -14.32 h 5.48 v 20.64 z" />
      <path
         id="path862"
         d="m 385.68477,352.58211 v 4.08 h 0.08 q 0.76,-1.72 1.36,-2.6 0.64,-0.88 1.36,-1.24 0.72,-0.4 1.84,-0.56 v 6.92 h -0.08 q -0.48,-0.12 -1.04,-0.12 -1.44,0 -2.4,1 -0.92,1 -0.92,2.8 v 10.36 h -5.52 v -20.64 z" />
      <path
         id="path864"
         d="m 397.36914,374.58211 q 0,0.84 0.36,1.24 0.36,0.44 0.96,0.44 0.64,0 0.96,-0.48 0.36,-0.44 0.36,-1.24 v -3.64 h -0.08 q -1.44,2.32 -4.04,2.32 -1.68,0 -2.88,-1.16 -1.16,-1.2 -1.16,-3.4 v -12.08 q 0,-2.2 1.16,-3.36 1.2,-1.2 2.88,-1.2 1.2,0 2.12,0.48 0.96,0.48 1.48,1.2 0.56,0.68 0.68,1.28 h 0.08 v -2.4 h 5.24 v 21.28 q 0,3.64 -1.6,5.08 -1.56,1.48 -5.12,1.48 -2.6,0 -4.04,-0.52 -1.4,-0.52 -2.04,-1.76 -0.6,-1.24 -0.6,-3.56 z m 0,-7.6 q 0,0.92 0.28,1.36 0.28,0.4 0.88,0.4 0.56,0 1,-0.44 0.48,-0.48 0.48,-1.32 v -8.72 q 0,-0.84 -0.48,-1.28 -0.44,-0.48 -1,-0.48 -0.6,0 -0.88,0.44 -0.28,0.4 -0.28,1.32 z" />
    </g>
  </g>
</svg>
