<?xml version="1.0" encoding="UTF-8" standalone="no"?>
<svg
   id="svg897"
   version="1.1"
   viewBox="0 0 105.9208 9.7443104"
   height="9.7443104mm"
   width="105.9208mm"
   sodipodi:docname="henstedt-ulzburg.svg"
   inkscape:version="1.1.1 (3bf5ae0d25, 2021-09-20)"
   xmlns:inkscape="http://www.inkscape.org/namespaces/inkscape"
   xmlns:sodipodi="http://sodipodi.sourceforge.net/DTD/sodipodi-0.dtd"
   xmlns="http://www.w3.org/2000/svg"
   xmlns:svg="http://www.w3.org/2000/svg"
   xmlns:rdf="http://www.w3.org/1999/02/22-rdf-syntax-ns#"
   xmlns:cc="http://creativecommons.org/ns#"
   xmlns:dc="http://purl.org/dc/elements/1.1/">
  <sodipodi:namedview
     id="namedview28"
     pagecolor="#505050"
     bordercolor="#eeeeee"
     borderopacity="1"
     inkscape:pageshadow="0"
     inkscape:pageopacity="0"
     inkscape:pagecheckerboard="0"
     inkscape:document-units="mm"
     showgrid="false"
     inkscape:zoom="2.8967391"
     inkscape:cx="247.34709"
     inkscape:cy="17.778612"
     inkscape:window-width="1920"
     inkscape:window-height="991"
     inkscape:window-x="-9"
     inkscape:window-y="-9"
     inkscape:window-maximized="1"
     inkscape:current-layer="flowRoot1442"
     fit-margin-top="0"
     fit-margin-left="0"
     fit-margin-right="0"
     fit-margin-bottom="0" />
  <defs
     id="defs891" />
  <metadata
     id="metadata894">
    <rdf:RDF>
      <cc:Work
         rdf:about="">
        <dc:format>image/svg+xml</dc:format>
        <dc:type
           rdf:resource="http://purl.org/dc/dcmitype/StillImage" />
      </cc:Work>
    </rdf:RDF>
  </metadata>
  <g
     transform="translate(-23.794578,-91.043682)"
     id="layer1">
    <g
       id="flowRoot1442"
       style="font-style:normal;font-variant:normal;font-weight:bold;font-stretch:condensed;font-size:40px;line-height:1.25;font-family:DieFONT;-inkscape-font-specification:'DieFONT, Bold Condensed';font-variant-ligatures:normal;font-variant-caps:normal;font-variant-numeric:normal;font-feature-settings:normal;text-align:start;letter-spacing:0px;word-spacing:0px;writing-mode:lr-tb;text-anchor:start;fill:#000000;fill-opacity:1;stroke:none"
       transform="scale(0.26458333)"
       aria-label="Ortsverband Kronshagen">
      <path
         id="path66"
         d="m 89.932266,350.82211 q 0,-2.64 0.76,-4.08 0.8,-1.48 2.36,-2.04 1.56,-0.6 4.16,-0.6 2.64,0 4.200004,0.6 1.56,0.56 2.32,2.04 0.8,1.44 0.8,4.08 v 16.24 q 0,2.64 -0.8,4.12 -0.76,1.44 -2.32,2.04 -1.560004,0.56 -4.200004,0.56 -2.6,0 -4.16,-0.56 -1.56,-0.6 -2.36,-2.04 -0.76,-1.48 -0.76,-4.12 z m 5.68,16.2 q 0,0.84 0.36,1.2 0.36,0.36 1.24,0.36 0.88,0 1.24,-0.36 0.4,-0.36 0.4,-1.2 v -16.16 q 0,-0.84 -0.4,-1.2 -0.36,-0.36 -1.24,-0.36 -0.88,0 -1.24,0.36 -0.36,0.36 -0.36,1.2 z" />
      <path
         id="path68"
         d="m 112.71602,352.58211 v 4.08 h 0.08 q 0.76,-1.72 1.36,-2.6 0.64,-0.88 1.36,-1.24 0.72,-0.4 1.84,-0.56 v 6.92 h -0.08 q -0.48,-0.12 -1.04,-0.12 -1.44,0 -2.4,1 -0.92,1 -0.92,2.8 v 10.36 h -5.52 v -20.64 z" />
      <path
         id="path70"
         d="m 124.92039,347.10211 v 5.48 h 3 v 4.64 h -3 v 8.4 q 0,1.16 0.12,1.68 0.12,0.52 0.4,0.72 0.32,0.16 0.96,0.16 h 1.52 v 5.04 h -5.44 q -1.48,0 -2.28,-0.92 -0.76,-0.96 -0.76,-2.6 v -12.48 h -1.76 v -4.64 h 1.76 v -5.48 z" />
      <path
         id="path72"
         d="m 136.98164,357.86211 q 0,-0.6 -0.4,-0.96 -0.4,-0.4 -0.96,-0.4 -0.6,0 -0.96,0.32 -0.32,0.32 -0.32,0.92 0,0.96 0.72,1.56 0.76,0.56 2.4,1.4 1.56,0.76 2.56,1.44 1.04,0.68 1.76,1.88 0.72,1.16 0.72,2.88 0.12,3.44 -1.52,5.16 -1.64,1.72 -5.2,1.72 -3.44,0 -5.08,-1.56 -1.64,-1.6 -1.64,-4.52 v -1.6 h 5.28 v 0.88 q 0,1.28 0.36,1.8 0.36,0.52 1.08,0.52 0.64,0 0.92,-0.36 0.28,-0.4 0.28,-1.28 0,-1.16 -0.72,-1.76 -0.72,-0.64 -2.32,-1.44 -1.52,-0.72 -2.52,-1.4 -0.96,-0.68 -1.68,-2 -0.68,-1.36 -0.68,-3.44 0,-2.6 1.68,-4.08 1.68,-1.52 5.04,-1.52 3.08,0 4.64,1.32 1.6,1.28 1.6,3.88 v 1.92 h -5.04 z" />
      <path
         id="path74"
         d="m 151.21789,368.18211 h 0.08 l 2,-15.6 h 5.68 l -4.56,20.64 h -6.36 l -4.56,-20.64 h 5.68 z" />
      <path
         id="path76"
         d="m 165.83914,367.46211 q 0,1.84 1.48,1.84 1.44,0 1.44,-1.84 v -1.12 h 5.08 v 1.84 q 0,2.8 -1.64,4.2 -1.64,1.4 -5.12,1.4 -3.48,0 -5.12,-1.4 -1.64,-1.4 -1.64,-4.2 v -9.24 q 0,-3.64 1.52,-5.28 1.56,-1.64 5.24,-1.64 3.68,0 5.2,1.64 1.56,1.64 1.56,5.28 v 5.32 h -8 z m 2.92,-9 q 0,-0.96 -0.4,-1.44 -0.36,-0.52 -1.04,-0.52 -0.72,0 -1.12,0.52 -0.36,0.48 -0.36,1.44 v 1.88 h 2.92 z" />
      <path
         id="path78"
         d="m 181.77852,352.58211 v 4.08 h 0.08 q 0.76,-1.72 1.36,-2.6 0.64,-0.88 1.36,-1.24 0.72,-0.4 1.84,-0.56 v 6.92 h -0.08 q -0.48,-0.12 -1.04,-0.12 -1.44,0 -2.4,1 -0.92,1 -0.92,2.8 v 10.36 h -5.52 v -20.64 z" />
      <path
         id="path80"
         d="m 193.46289,354.74211 h 0.08 q 0.28,-1.16 1.36,-1.92 1.08,-0.8 2.72,-0.8 1.76,0 2.84,1.24 1.12,1.2 1.12,3.28 v 12.72 q 0,2.08 -1.12,3.32 -1.08,1.2 -2.84,1.2 -1.6,0 -2.8,-0.92 -1.16,-0.92 -1.52,-2.36 h -0.08 v 2.72 h -5.28 v -28.56 h 5.52 z m 2.64,3.52 q 0,-1.76 -1.16,-1.76 -0.6,0 -1.04,0.48 -0.44,0.44 -0.44,1.28 v 9.28 q 0,0.84 0.44,1.32 0.44,0.44 1.04,0.44 1.16,0 1.16,-1.76 z" />
      <path
         id="path82"
         d="m 204.50539,357.22211 q 0,-2.48 1.68,-3.84 1.72,-1.36 4.8,-1.36 3.12,0 4.8,1.36 1.68,1.36 1.68,3.84 v 12.08 q 0,1.2 0.16,1.96 0.16,0.76 0.48,1.96 h -5.32 q -0.36,-0.88 -0.36,-2.24 h -0.08 q -1.04,2.8 -3.96,2.8 -2.36,0 -3.48,-1.36 -1.08,-1.4 -1.08,-4.56 v -1.2 q 0,-2.28 0.76,-3.56 0.76,-1.28 1.8,-1.8 1.04,-0.52 2.68,-0.96 1.16,-0.32 1.76,-0.56 0.6,-0.24 1,-0.72 0.4,-0.52 0.4,-1.36 0,-0.64 -0.32,-1.12 -0.32,-0.48 -0.96,-0.48 -1,0 -1.32,0.68 -0.28,0.64 -0.28,2.4 h -4.84 z m 6.72,6.64 q -1.08,0.72 -1.48,1.32 -0.4,0.56 -0.4,1.88 v 0.52 q 0,0.92 0.4,1.32 0.4,0.4 1.2,0.4 0.36,0 0.68,-0.32 0.36,-0.36 0.36,-1 v -4.64 z" />
      <path
         id="path84"
         d="m 225.64477,352.58211 v 2.4 h 0.08 q 0.48,-1.24 1.6,-2.08 1.12,-0.88 2.56,-0.88 1.88,0 3,1.24 1.12,1.2 1.12,3.72 v 16.24 h -5.48 v -14.72 q 0,-2 -1.24,-2 -0.76,0 -1.08,0.52 -0.32,0.52 -0.32,1.88 v 14.32 h -5.52 v -20.64 z" />
      <path
         id="path86"
         d="m 245.32727,370.38211 q -0.44,1.52 -1.64,2.48 -1.16,0.92 -2.76,0.92 -1.76,0 -2.88,-1.2 -1.12,-1.24 -1.12,-3.32 v -12.72 q 0,-2.08 1.12,-3.28 1.12,-1.24 2.88,-1.24 1.64,0 2.68,0.8 1.08,0.76 1.4,1.92 h 0.08 v -10.08 h 5.48 v 28.56 h -5.24 z m -2.88,-2.84 q 0,0.92 0.28,1.36 0.28,0.4 0.88,0.4 0.56,0 1,-0.44 0.48,-0.48 0.48,-1.32 v -9.28 q 0,-0.84 -0.48,-1.28 -0.44,-0.48 -1,-0.48 -0.6,0 -0.88,0.44 -0.28,0.4 -0.28,1.32 z" />
      <g
         aria-label="Henstedt-Ulzburg"
         id="text5819"
         style="font-family:FreeSans;-inkscape-font-specification:FreeSans;letter-spacing:-1.2px">
        <path
           d="m 262.28629,373.17709 v -28.51562 h 5.52734 v 11.44531 h 3.92578 v -11.44531 h 5.54688 v 28.51562 h -5.54688 v -11.875 h -3.92578 v 11.875 z"
           style="font-stretch:normal;font-family:'Folio BdCn BT';-inkscape-font-specification:'Folio BdCn BT Bold'"
           id="path2832" />
        <path
           d="m 293.37144,365.931 v 1.40625 q 0,3.32031 -1.5625,4.86328 -1.54297,1.54297 -4.90234,1.54297 -3.90625,0 -5.66407,-1.32813 -1.73828,-1.34765 -1.73828,-4.3164 v -10.3125 q 0,-3.00781 1.71875,-4.41406 1.73828,-1.42579 5.39063,-1.42579 3.41797,0 5.07812,1.5625 1.67969,1.54297 1.67969,4.70704 v 5.83984 h -8.47656 v 3.59375 q 0,0.99609 0.42969,1.42578 0.42968,0.42969 1.40625,0.42969 0.85937,0 1.25,-0.44922 0.39062,-0.44922 0.39062,-1.40625 V 365.931 Z m -8.47656,-5.46875 h 3.47656 v -2.40234 q 0,-0.9375 -0.44922,-1.40625 -0.44922,-0.46875 -1.34765,-0.46875 -0.83985,0 -1.26954,0.46875 -0.41015,0.46875 -0.41015,1.40625 z"
           style="font-stretch:normal;font-family:'Folio BdCn BT';-inkscape-font-specification:'Folio BdCn BT Bold'"
           id="path2834" />
        <path
           d="m 295.49175,373.17709 v -20.64453 h 5.11719 v 2.5586 q 0.83984,-1.52344 2.05078,-2.30469 1.21094,-0.80078 2.67578,-0.80078 2.12891,0 3.1836,1.36718 1.05468,1.34766 1.05468,4.10157 v 15.72265 h -5.35156 v -13.88672 q 0,-1.85546 -0.35156,-2.46093 -0.33203,-0.60547 -1.21094,-0.60547 -0.89844,0 -1.32812,0.72265 -0.42969,0.70313 -0.42969,2.14844 v 14.08203 z"
           style="font-stretch:normal;font-family:'Folio BdCn BT';-inkscape-font-specification:'Folio BdCn BT Bold'"
           id="path2836" />
        <path
           d="m 311.57691,366.14584 h 5.19531 q -0.0195,0.19532 -0.0391,0.39063 0,0.19531 0,0.5664 0,1.21094 0.39063,1.81641 0.41015,0.58594 1.21093,0.58594 0.74219,0 1.15235,-0.46875 0.41015,-0.48828 0.41015,-1.34766 0,-0.76172 -0.44921,-1.34765 -0.44922,-0.58594 -1.52344,-1.21094 -0.625,-0.33203 -1.77735,-0.9375 -2.5,-1.26953 -3.16406,-2.01172 -0.76172,-0.80078 -1.11328,-1.83594 -0.33203,-1.03515 -0.33203,-2.4414 0,-2.92969 1.71875,-4.41407 1.71875,-1.5039 5.07812,-1.5039 3.10547,0 4.76563,1.58203 1.67969,1.58203 1.67969,4.53125 0,0.35156 -0.0195,0.52734 0,0.17578 -0.0391,0.35156 h -4.98047 q 0.0195,-0.13671 0.0195,-0.27343 0.0195,-0.15625 0.0195,-0.44922 0,-0.97656 -0.3711,-1.50391 -0.37109,-0.52734 -1.07422,-0.52734 -0.66406,0 -1.07421,0.41015 -0.41016,0.39063 -0.41016,1.01563 0,1.36719 2.79297,2.77344 1.25,0.625 1.93359,1.03515 2.08985,1.25 2.91016,2.5586 0.83984,1.28906 0.83984,3.28125 0,3.18359 -1.75781,4.84375 -1.75781,1.64062 -5.15625,1.64062 -3.57422,0 -5.23438,-1.54297 -1.64062,-1.5625 -1.64062,-4.90234 0,-0.33203 0,-0.625 0.0195,-0.29297 0.0391,-0.56641 z"
           style="font-stretch:normal;font-family:'Folio BdCn BT';-inkscape-font-specification:'Folio BdCn BT Bold'"
           id="path2838" />
        <path
           d="m 328.40425,357.181 h -1.79687 v -4.64844 h 1.79687 V 347.181 h 5.56641 v 5.35156 h 3.125 v 4.64844 h -3.125 v 9.00391 q 0,0.97656 0.5664,1.42578 0.58594,0.44922 1.83594,0.44922 0.0977,0 0.33203,-0.0195 0.23438,-0.0195 0.39063,-0.0195 v 5.15625 h -4.1211 q -2.7539,0 -3.67187,-0.8789 -0.89844,-0.87891 -0.89844,-3.28125 z"
           style="font-stretch:normal;font-family:'Folio BdCn BT';-inkscape-font-specification:'Folio BdCn BT Bold'"
           id="path2840" />
        <path
           d="m 352.43863,365.931 v 1.40625 q 0,3.32031 -1.5625,4.86328 -1.54297,1.54297 -4.90234,1.54297 -3.90625,0 -5.66407,-1.32813 -1.73828,-1.34765 -1.73828,-4.3164 v -10.3125 q 0,-3.00781 1.71875,-4.41406 1.73828,-1.42579 5.39063,-1.42579 3.41797,0 5.07812,1.5625 1.67969,1.54297 1.67969,4.70704 v 5.83984 h -8.47656 v 3.59375 q 0,0.99609 0.42968,1.42578 0.42969,0.42969 1.40625,0.42969 0.85938,0 1.25,-0.44922 0.39063,-0.44922 0.39063,-1.40625 V 365.931 Z m -8.47656,-5.46875 h 3.47656 v -2.40234 q 0,-0.9375 -0.44922,-1.40625 -0.44922,-0.46875 -1.34766,-0.46875 -0.83984,0 -1.26953,0.46875 -0.41015,0.46875 -0.41015,1.40625 z"
           style="font-stretch:normal;font-family:'Folio BdCn BT';-inkscape-font-specification:'Folio BdCn BT Bold'"
           id="path2842" />
        <path
           d="m 363.17223,373.17709 v -2.55859 q -0.83985,1.52344 -2.05079,2.32422 -1.21093,0.80078 -2.67578,0.80078 -2.10937,0 -3.10547,-1.32813 -0.97656,-1.32812 -0.97656,-4.16015 v -10.80078 q 0,-2.77344 0.9961,-4.1211 0.99609,-1.34765 3.04687,-1.34765 1.42578,0 2.61719,0.82031 1.1914,0.82031 1.89453,2.28516 v -10.42969 h 5.37109 v 28.51562 z m -0.25391,-14.47265 q 0,-1.3086 -0.35156,-1.77735 -0.35157,-0.46875 -1.21094,-0.46875 -0.85938,0 -1.19141,0.42969 -0.3125,0.42969 -0.3125,1.81641 v 8.32031 q 0,1.36719 0.33203,1.79687 0.33204,0.42969 1.17188,0.42969 0.85937,0 1.19141,-0.41015 0.33203,-0.41016 0.37109,-1.81641 z"
           style="font-stretch:normal;font-family:'Folio BdCn BT';-inkscape-font-specification:'Folio BdCn BT Bold'"
           id="path2844" />
        <path
           d="m 371.71832,357.181 h -1.79688 v -4.64844 h 1.79688 V 347.181 h 5.5664 v 5.35156 h 3.125 v 4.64844 h -3.125 v 9.00391 q 0,0.97656 0.56641,1.42578 0.58594,0.44922 1.83594,0.44922 0.0976,0 0.33203,-0.0195 0.23437,-0.0195 0.39062,-0.0195 v 5.15625 h -4.12109 q -2.75391,0 -3.67188,-0.8789 -0.89843,-0.87891 -0.89843,-3.28125 z"
           style="font-stretch:normal;font-family:'Folio BdCn BT';-inkscape-font-specification:'Folio BdCn BT Bold'"
           id="path2846" />
        <path
           d="m 382.08082,364.81772 v -4.64844 h 9.16015 v 4.64844 z"
           style="font-stretch:normal;font-family:'Folio BdCn BT';-inkscape-font-specification:'Folio BdCn BT Bold'"
           id="path2848" />
        <path
           d="m 393.63472,344.66147 h 5.56641 v 20.68359 q 0,2.28516 0.35156,2.8711 0.35156,0.5664 1.28906,0.5664 0.9375,0 1.28906,-0.5664 0.35157,-0.56641 0.35157,-2.83204 v -0.33203 -20.39062 h 5.5664 V 367.181 q 0,3.61328 -1.62109,5.09766 -1.6211,1.46484 -5.58594,1.46484 -3.96484,0 -5.58594,-1.46484 -1.62109,-1.48438 -1.62109,-5.09766 z"
           style="font-stretch:normal;font-family:'Folio BdCn BT';-inkscape-font-specification:'Folio BdCn BT Bold'"
           id="path2850" />
        <path
           d="m 410.83316,373.17709 v -28.51562 h 5.56641 v 28.51562 z"
           style="font-stretch:normal;font-family:'Folio BdCn BT';-inkscape-font-specification:'Folio BdCn BT Bold'"
           id="path2852" />
        <path
           d="m 418.12926,373.17709 v -4.72656 l 6.11328,-11.26953 h -6.11328 v -4.64844 h 12.1289 v 4.53125 l -6.17187,11.46485 h 6.32812 v 4.64843 z"
           style="font-stretch:normal;font-family:'Folio BdCn BT';-inkscape-font-specification:'Folio BdCn BT Bold'"
           id="path2854" />
        <path
           d="m 437.08551,373.17709 h -5.11719 v -28.51562 h 5.41016 v 10.42969 q 0.70312,-1.48438 1.875,-2.28516 1.17187,-0.82031 2.59766,-0.82031 2.05078,0 3.04687,1.34765 0.99609,1.34766 0.99609,4.1211 v 10.80078 q 0,2.8125 -0.99609,4.16015 -0.99609,1.32813 -3.08594,1.32813 -1.46484,0 -2.67578,-0.80078 -1.21094,-0.80078 -2.05078,-2.32422 z m 0.29297,-14.47265 v 8.32031 q 0,1.36719 0.33203,1.79687 0.33203,0.42969 1.19141,0.42969 0.83984,0 1.17187,-0.42969 0.33203,-0.44921 0.33203,-1.79687 v -8.32031 q 0,-1.38672 -0.33203,-1.81641 -0.33203,-0.42969 -1.17187,-0.42969 -0.85938,0 -1.19141,0.44922 -0.33203,0.44922 -0.33203,1.79688 z"
           style="font-stretch:normal;font-family:'Folio BdCn BT';-inkscape-font-specification:'Folio BdCn BT Bold'"
           id="path2856" />
        <path
           d="m 462.05737,352.53256 v 20.64453 h -5.07812 v -2.55859 q -0.87891,1.52344 -2.08985,2.32422 -1.21093,0.80078 -2.67578,0.80078 -2.1289,0 -3.16406,-1.34766 -1.03516,-1.36718 -1.03516,-4.14062 v -15.72266 h 5.52735 v 14.08203 q 0,1.75782 0.3125,2.26563 0.3125,0.48828 1.15234,0.48828 0.87891,0 1.26953,-0.64453 0.41016,-0.66406 0.41016,-2.10938 v -14.08203 z"
           style="font-stretch:normal;font-family:'Folio BdCn BT';-inkscape-font-specification:'Folio BdCn BT Bold'"
           id="path2858" />
        <path
           d="m 464.76363,373.17709 v -20.64453 h 5.5664 l -0.15625,3.84766 q 0.50781,-1.50391 1.69922,-2.57813 1.19141,-1.09375 3.18359,-1.8164 l -0.0195,7.26562 q -0.33203,-0.0586 -0.625,-0.0781 -0.27343,-0.0391 -0.52734,-0.0391 -1.85547,0 -2.71484,0.9961 -0.83985,0.99609 -0.83985,3.20312 v 9.84375 z"
           style="font-stretch:normal;font-family:'Folio BdCn BT';-inkscape-font-specification:'Folio BdCn BT Bold'"
           id="path2860" />
        <path
           d="m 484.85269,366.30209 v -7.59765 q 0,-1.38672 -0.33203,-1.81641 -0.33203,-0.42969 -1.19141,-0.42969 -0.83984,0 -1.17187,0.44922 -0.33203,0.44922 -0.33203,1.79688 v 7.59765 q 0,1.36719 0.3125,1.77735 0.33203,0.41015 1.1914,0.41015 0.85938,0 1.19141,-0.42968 0.33203,-0.42969 0.33203,-1.75782 z m 0.29297,-13.76953 h 5.11719 v 22.12891 q 0,3.45703 -1.48438,4.86328 -1.48437,1.40625 -5.11718,1.40625 -3.73047,0 -5.27344,-1.07422 -1.52344,-1.07422 -1.52344,-3.67187 0,-0.42969 0,-0.74219 0.0195,-0.29297 0.0391,-0.58594 h 4.82422 q 0.0977,0.97656 0.46875,1.40625 0.3711,0.42969 1.13281,0.42969 0.85938,0 1.21094,-0.48828 0.35156,-0.46875 0.35156,-1.73828 v -4.41407 q -0.70312,1.48438 -1.89453,2.30469 -1.1914,0.82031 -2.61718,0.82031 -2.05079,0 -3.04688,-1.34765 -0.99609,-1.34766 -0.99609,-4.14063 v -10.23437 q 0,-2.8125 0.99609,-4.14063 0.99609,-1.32812 3.08594,-1.32812 1.46484,0 2.65625,0.78125 1.1914,0.78125 2.07031,2.32422 z"
           style="font-stretch:normal;font-family:'Folio BdCn BT';-inkscape-font-specification:'Folio BdCn BT Bold'"
           id="path2862" />
      </g>
    </g>
  </g>
</svg>
