<?xml version="1.0" encoding="UTF-8" standalone="no"?>
<svg
   xmlns:dc="http://purl.org/dc/elements/1.1/"
   xmlns:cc="http://creativecommons.org/ns#"
   xmlns:rdf="http://www.w3.org/1999/02/22-rdf-syntax-ns#"
   xmlns:svg="http://www.w3.org/2000/svg"
   xmlns="http://www.w3.org/2000/svg"
   id="svg4633"
   version="1.1"
   viewBox="0 0 123.46549 9.6096669"
   height="9.6096668mm"
   width="123.46549mm">
  <defs
     id="defs4627" />
  <metadata
     id="metadata4630">
    <rdf:RDF>
      <cc:Work
         rdf:about="">
        <dc:format>image/svg+xml</dc:format>
        <dc:type
           rdf:resource="http://purl.org/dc/dcmitype/StillImage" />
        <dc:title></dc:title>
      </cc:Work>
    </rdf:RDF>
  </metadata>
  <g
     transform="translate(-31.459714,-38.319141)"
     id="layer1">
    <g
       id="text5180"
       style="font-style:normal;font-variant:normal;font-weight:bold;font-stretch:condensed;font-size:10.58333302px;line-height:1.25;font-family:DieFONT;-inkscape-font-specification:'DieFONT, Bold Condensed';font-variant-ligatures:normal;font-variant-caps:normal;font-variant-numeric:normal;font-feature-settings:normal;text-align:start;letter-spacing:0px;word-spacing:0px;writing-mode:lr-tb;text-anchor:start;fill:#000000;fill-opacity:1;stroke:none;stroke-width:0.26458332"
       aria-label="Landesverband Schleswig-Holstein">
      <path
         id="path5270"
         style="stroke-width:0.26458332"
         d="m 31.459714,38.467308 h 1.502833 v 6.180666 h 1.576917 v 1.375834 h -3.07975 z" />
      <path
         id="path5272"
         style="stroke-width:0.26458332"
         d="m 35.023651,41.790474 q 0,-0.656166 0.4445,-1.016 0.455084,-0.359833 1.27,-0.359833 0.8255,0 1.27,0.359833 0.4445,0.359834 0.4445,1.016 v 3.196167 q 0,0.3175 0.04233,0.518583 0.04233,0.201084 0.127,0.518584 h -1.407583 q -0.09525,-0.232834 -0.09525,-0.592667 h -0.02117 q -0.275167,0.740833 -1.04775,0.740833 -0.624417,0 -0.92075,-0.359833 -0.28575,-0.370417 -0.28575,-1.2065 v -0.3175 q 0,-0.60325 0.201083,-0.941917 0.201083,-0.338666 0.47625,-0.47625 0.275167,-0.137583 0.709083,-0.254 0.306917,-0.08467 0.465667,-0.148166 0.15875,-0.0635 0.264583,-0.1905 0.105834,-0.137584 0.105834,-0.359834 0,-0.169333 -0.08467,-0.296333 -0.08467,-0.127 -0.254,-0.127 -0.264583,0 -0.34925,0.179917 -0.07408,0.169333 -0.07408,0.635 h -1.280584 z m 1.778,1.756834 q -0.28575,0.1905 -0.391583,0.34925 -0.105833,0.148166 -0.105833,0.497416 v 0.137584 q 0,0.243416 0.105833,0.34925 0.105833,0.105833 0.3175,0.105833 0.09525,0 0.179917,-0.08467 0.09525,-0.09525 0.09525,-0.264583 v -1.227667 z" />
      <path
         id="path5274"
         style="stroke-width:0.26458332"
         d="m 40.616777,40.562808 v 0.635 h 0.02117 q 0.127,-0.328084 0.423333,-0.550334 0.296333,-0.232833 0.677333,-0.232833 0.497417,0 0.79375,0.328083 0.296334,0.3175 0.296334,0.98425 v 4.296834 h -1.449917 v -3.894667 q 0,-0.529167 -0.328083,-0.529167 -0.201084,0 -0.28575,0.137584 -0.08467,0.137583 -0.08467,0.497416 v 3.788834 h -1.4605 v -5.461 z" />
      <path
         id="path5276"
         style="stroke-width:0.26458332"
         d="m 45.824438,45.272391 q -0.116417,0.402167 -0.433917,0.656167 -0.306916,0.243416 -0.73025,0.243416 -0.465666,0 -0.762,-0.3175 -0.296333,-0.328083 -0.296333,-0.878416 v -3.3655 q 0,-0.550334 0.296333,-0.867834 0.296334,-0.328083 0.762,-0.328083 0.433917,0 0.709084,0.211667 0.28575,0.201083 0.370416,0.508 h 0.02117 v -2.667 h 1.449917 v 7.5565 h -1.386417 z m -0.762,-0.751417 q 0,0.243417 0.07408,0.359834 0.07408,0.105833 0.232834,0.105833 0.148166,0 0.264583,-0.116417 0.127,-0.127 0.127,-0.34925 v -2.455333 q 0,-0.22225 -0.127,-0.338667 -0.116417,-0.127 -0.264583,-0.127 -0.15875,0 -0.232834,0.116417 -0.07408,0.105833 -0.07408,0.34925 z" />
      <path
         id="path5278"
         style="stroke-width:0.26458332"
         d="m 49.370516,44.499808 q 0,0.486833 0.391583,0.486833 0.381,0 0.381,-0.486833 v -0.296334 h 1.344083 v 0.486834 q 0,0.740833 -0.433916,1.11125 -0.433917,0.370416 -1.354667,0.370416 -0.92075,0 -1.354666,-0.370416 -0.433917,-0.370417 -0.433917,-1.11125 v -2.44475 q 0,-0.963084 0.402167,-1.397 0.41275,-0.433917 1.386416,-0.433917 0.973667,0 1.375834,0.433917 0.412749,0.433916 0.412749,1.397 v 1.407583 h -2.116666 z m 0.772583,-2.38125 q 0,-0.254 -0.105833,-0.381 -0.09525,-0.137584 -0.275167,-0.137584 -0.1905,0 -0.296333,0.137584 -0.09525,0.127 -0.09525,0.381 v 0.497416 h 0.772583 z" />
      <path
         id="path5280"
         style="stroke-width:0.26458332"
         d="m 54.116976,41.959808 q 0,-0.15875 -0.105833,-0.254 -0.105834,-0.105834 -0.254,-0.105834 -0.15875,0 -0.254,0.08467 -0.08467,0.08467 -0.08467,0.243417 0,0.254 0.1905,0.41275 0.201083,0.148166 0.635,0.370416 0.41275,0.201084 0.677333,0.381 0.275167,0.179917 0.465667,0.497417 0.1905,0.306917 0.1905,0.762 0.03175,0.910167 -0.402167,1.36525 -0.433916,0.455083 -1.375833,0.455083 -0.910166,0 -1.344083,-0.41275 -0.433917,-0.423333 -0.433917,-1.195916 v -0.423334 h 1.397 v 0.232834 q 0,0.338666 0.09525,0.47625 0.09525,0.137583 0.28575,0.137583 0.169333,0 0.243417,-0.09525 0.07408,-0.105833 0.07408,-0.338667 0,-0.306916 -0.1905,-0.465666 -0.1905,-0.169334 -0.613833,-0.381 -0.402167,-0.1905 -0.66675,-0.370417 -0.254,-0.179917 -0.4445,-0.529167 -0.179917,-0.359833 -0.179917,-0.910166 0,-0.687917 0.4445,-1.0795 0.4445,-0.402167 1.3335,-0.402167 0.814917,0 1.227667,0.34925 0.423333,0.338667 0.423333,1.026583 v 0.508 h -1.3335 z" />
      <path
         id="path5282"
         style="stroke-width:0.26458332"
         d="m 57.883649,44.690308 h 0.02117 l 0.529167,-4.1275 h 1.502833 l -1.2065,5.461 h -1.68275 l -1.2065,-5.461 h 1.502833 z" />
      <path
         id="path5284"
         style="stroke-width:0.26458332"
         d="m 61.752188,44.499808 q 0,0.486833 0.391583,0.486833 0.381,0 0.381,-0.486833 v -0.296334 h 1.344083 v 0.486834 q 0,0.740833 -0.433916,1.11125 -0.433917,0.370416 -1.354667,0.370416 -0.92075,0 -1.354667,-0.370416 -0.433916,-0.370417 -0.433916,-1.11125 v -2.44475 q 0,-0.963084 0.402166,-1.397 0.41275,-0.433917 1.386417,-0.433917 0.973667,0 1.375833,0.433917 0.41275,0.433916 0.41275,1.397 v 1.407583 h -2.116666 z m 0.772583,-2.38125 q 0,-0.254 -0.105833,-0.381 -0.09525,-0.137584 -0.275167,-0.137584 -0.1905,0 -0.296333,0.137584 -0.09525,0.127 -0.09525,0.381 v 0.497416 h 0.772583 z" />
      <path
         id="path5286"
         style="stroke-width:0.26458332"
         d="m 65.969479,40.562808 v 1.0795 h 0.02117 q 0.201083,-0.455084 0.359833,-0.687917 0.169334,-0.232833 0.359834,-0.328083 0.1905,-0.105834 0.486833,-0.148167 v 1.830917 h -0.02117 q -0.127,-0.03175 -0.275166,-0.03175 -0.381,0 -0.635,0.264583 -0.243417,0.264583 -0.243417,0.740833 v 2.741084 h -1.4605 v -5.461 z" />
      <path
         id="path5288"
         style="stroke-width:0.26458332"
         d="m 69.06097,41.134308 h 0.02117 q 0.07408,-0.306917 0.359833,-0.508 0.28575,-0.211667 0.719667,-0.211667 0.465667,0 0.751417,0.328083 0.296333,0.3175 0.296333,0.867834 v 3.3655 q 0,0.550333 -0.296333,0.878416 -0.28575,0.3175 -0.751417,0.3175 -0.423333,0 -0.740833,-0.243416 -0.306917,-0.243417 -0.402167,-0.624417 h -0.02117 v 0.719667 h -1.397 v -7.5565 h 1.4605 z m 0.6985,0.931333 q 0,-0.465667 -0.306916,-0.465667 -0.15875,0 -0.275167,0.127 -0.116417,0.116417 -0.116417,0.338667 v 2.455333 q 0,0.22225 0.116417,0.34925 0.116417,0.116417 0.275167,0.116417 0.306916,0 0.306916,-0.465667 z" />
      <path
         id="path5290"
         style="stroke-width:0.26458332"
         d="m 71.982634,41.790474 q 0,-0.656166 0.4445,-1.016 0.455084,-0.359833 1.27,-0.359833 0.8255,0 1.27,0.359833 0.4445,0.359834 0.4445,1.016 v 3.196167 q 0,0.3175 0.04233,0.518583 0.04233,0.201084 0.127,0.518584 h -1.407584 q -0.09525,-0.232834 -0.09525,-0.592667 h -0.02117 q -0.275167,0.740833 -1.04775,0.740833 -0.624417,0 -0.92075,-0.359833 -0.28575,-0.370417 -0.28575,-1.2065 v -0.3175 q 0,-0.60325 0.201083,-0.941917 0.201083,-0.338666 0.47625,-0.47625 0.275167,-0.137583 0.709083,-0.254 0.306917,-0.08467 0.465667,-0.148166 0.15875,-0.0635 0.264583,-0.1905 0.105834,-0.137584 0.105834,-0.359834 0,-0.169333 -0.08467,-0.296333 -0.08467,-0.127 -0.254,-0.127 -0.264583,0 -0.34925,0.179917 -0.07408,0.169333 -0.07408,0.635 h -1.280584 z m 1.778,1.756834 q -0.28575,0.1905 -0.391583,0.34925 -0.105833,0.148166 -0.105833,0.497416 v 0.137584 q 0,0.243416 0.105833,0.34925 0.105833,0.105833 0.3175,0.105833 0.09525,0 0.179917,-0.08467 0.09525,-0.09525 0.09525,-0.264583 v -1.227667 z" />
      <path
         id="path5292"
         style="stroke-width:0.26458332"
         d="m 77.575759,40.562808 v 0.635 h 0.02117 q 0.127,-0.328084 0.423333,-0.550334 0.296334,-0.232833 0.677334,-0.232833 0.497416,0 0.79375,0.328083 0.296333,0.3175 0.296333,0.98425 v 4.296834 h -1.449917 v -3.894667 q 0,-0.529167 -0.328083,-0.529167 -0.201083,0 -0.28575,0.137584 -0.08467,0.137583 -0.08467,0.497416 v 3.788834 h -1.4605 v -5.461 z" />
      <path
         id="path5294"
         style="stroke-width:0.26458332"
         d="m 82.78342,45.272391 q -0.116417,0.402167 -0.433917,0.656167 -0.306917,0.243416 -0.73025,0.243416 -0.465667,0 -0.762,-0.3175 -0.296333,-0.328083 -0.296333,-0.878416 v -3.3655 q 0,-0.550334 0.296333,-0.867834 0.296333,-0.328083 0.762,-0.328083 0.433917,0 0.709083,0.211667 0.28575,0.201083 0.370417,0.508 h 0.02117 v -2.667 h 1.449916 v 7.5565 H 82.78342 Z m -0.762,-0.751417 q 0,0.243417 0.07408,0.359834 0.07408,0.105833 0.232833,0.105833 0.148167,0 0.264584,-0.116417 0.127,-0.127 0.127,-0.34925 v -2.455333 q 0,-0.22225 -0.127,-0.338667 -0.116417,-0.127 -0.264584,-0.127 -0.15875,0 -0.232833,0.116417 -0.07408,0.105833 -0.07408,0.34925 z" />
      <path
         id="path5296"
         style="stroke-width:0.26458332"
         d="m 89.334007,40.319391 q 0,-0.328083 -0.105834,-0.47625 -0.105833,-0.148167 -0.328083,-0.148167 -0.232833,0 -0.328083,0.148167 -0.09525,0.137583 -0.09525,0.47625 0,0.370417 0.211667,0.635 0.222249,0.254 0.698499,0.624417 0.455084,0.34925 0.740834,0.645583 0.296333,0.28575 0.497416,0.762 0.211667,0.465667 0.211667,1.121833 0,0.804334 -0.179917,1.248834 -0.179916,0.433916 -0.60325,0.624416 -0.41275,0.1905 -1.164166,0.1905 -0.6985,0 -1.11125,-0.15875 -0.41275,-0.169333 -0.613833,-0.560916 -0.1905,-0.402167 -0.1905,-1.100667 v -0.709083 h 1.502833 v 0.529166 q 0,0.328084 0.09525,0.47625 0.105833,0.148167 0.328083,0.148167 0.232833,0 0.328083,-0.148167 0.105834,-0.148166 0.105834,-0.47625 0,-0.465666 -0.243417,-0.762 -0.232833,-0.296333 -0.73025,-0.677333 -0.4445,-0.34925 -0.719666,-0.635 -0.275167,-0.28575 -0.47625,-0.740833 -0.1905,-0.455084 -0.1905,-1.11125 0,-1.026584 0.433916,-1.471084 0.433917,-0.455083 1.49225,-0.455083 0.98425,0 1.439333,0.423333 0.455084,0.423334 0.455084,1.407584 v 0.592666 h -1.4605 z" />
      <path
         id="path5298"
         style="stroke-width:0.26458332"
         d="m 94.757798,44.658558 q 0,1.513416 -1.756833,1.513416 -0.85725,0 -1.30175,-0.391583 -0.433916,-0.391583 -0.433916,-1.121833 v -2.7305 q 0,-0.73025 0.4445,-1.121834 0.4445,-0.391583 1.291166,-0.391583 1.756833,0 1.756833,1.513417 v 0.709083 h -1.333499 v -0.613833 q 0,-0.201084 -0.09525,-0.306917 -0.09525,-0.116417 -0.254,-0.116417 -0.169334,0 -0.264584,0.116417 -0.08467,0.105833 -0.08467,0.306917 v 2.54 q 0,0.201083 0.08467,0.3175 0.09525,0.105833 0.264584,0.105833 0.15875,0 0.254,-0.105833 0.09525,-0.116417 0.09525,-0.3175 v -0.719667 h 1.333499 z" />
      <path
         id="path5300"
         style="stroke-width:0.26458332"
         d="m 96.799392,38.467308 v 2.7305 h 0.02117 q 0.127,-0.328084 0.423333,-0.550334 0.296334,-0.232833 0.677334,-0.232833 0.497416,0 0.79375,0.328083 0.296333,0.3175 0.296333,0.98425 v 4.296834 h -1.449917 v -3.894667 q 0,-0.529167 -0.328083,-0.529167 -0.201083,0 -0.28575,0.137584 -0.08467,0.137583 -0.08467,0.497416 v 3.788834 h -1.4605 v -7.5565 z" />
      <path
         id="path5302"
         style="stroke-width:0.26458332"
         d="m 101.2768,46.023808 h -1.460501 v -7.5565 h 1.460501 z" />
      <path
         id="path5304"
         style="stroke-width:0.26458332"
         d="m 103.48607,44.499808 q 0,0.486833 0.39159,0.486833 0.381,0 0.381,-0.486833 v -0.296334 h 1.34408 v 0.486834 q 0,0.740833 -0.43392,1.11125 -0.43391,0.370416 -1.35466,0.370416 -0.92075,0 -1.35467,-0.370416 -0.43392,-0.370417 -0.43392,-1.11125 v -2.44475 q 0,-0.963084 0.40217,-1.397 0.41275,-0.433917 1.38642,-0.433917 0.97366,0 1.37583,0.433917 0.41275,0.433916 0.41275,1.397 v 1.407583 h -2.11667 z m 0.77259,-2.38125 q 0,-0.254 -0.10584,-0.381 -0.0953,-0.137584 -0.27516,-0.137584 -0.1905,0 -0.29634,0.137584 -0.0953,0.127 -0.0953,0.381 v 0.497416 h 0.77259 z" />
      <path
         id="path5306"
         style="stroke-width:0.26458332"
         d="m 108.23253,41.959808 q 0,-0.15875 -0.10583,-0.254 -0.10584,-0.105834 -0.254,-0.105834 -0.15875,0 -0.254,0.08467 -0.0847,0.08467 -0.0847,0.243417 0,0.254 0.1905,0.41275 0.20108,0.148166 0.635,0.370416 0.41275,0.201084 0.67733,0.381 0.27517,0.179917 0.46567,0.497417 0.1905,0.306917 0.1905,0.762 0.0318,0.910167 -0.40217,1.36525 -0.43391,0.455083 -1.37583,0.455083 -0.91017,0 -1.34408,-0.41275 -0.43392,-0.423333 -0.43392,-1.195916 v -0.423334 h 1.397 v 0.232834 q 0,0.338666 0.0952,0.47625 0.0953,0.137583 0.28575,0.137583 0.16933,0 0.24342,-0.09525 0.0741,-0.105833 0.0741,-0.338667 0,-0.306916 -0.1905,-0.465666 -0.1905,-0.169334 -0.61383,-0.381 -0.40217,-0.1905 -0.66675,-0.370417 -0.254,-0.179917 -0.4445,-0.529167 -0.17992,-0.359833 -0.17992,-0.910166 0,-0.687917 0.4445,-1.0795 0.4445,-0.402167 1.3335,-0.402167 0.81492,0 1.22767,0.34925 0.42333,0.338667 0.42333,1.026583 v 0.508 h -1.3335 z" />
      <path
         id="path5308"
         style="stroke-width:0.26458332"
         d="m 111.48062,40.562808 0.39159,4.085166 h 0.0212 l 0.46567,-4.085166 h 1.60867 l 0.45508,4.085166 h 0.0212 l 0.41275,-4.085166 h 1.4605 l -1.00542,5.461 h -1.73567 l -0.40216,-4.085167 h -0.0212 l -0.42333,4.085167 h -1.74625 l -0.99484,-5.461 z" />
      <path
         id="path5310"
         style="stroke-width:0.26458332"
         d="m 116.87101,38.467308 h 1.3335 v 1.439333 h -1.3335 z m 1.397,7.5565 h -1.4605 v -5.461 h 1.4605 z" />
      <path
         id="path5312"
         style="stroke-width:0.26458332"
         d="m 120.55137,46.383641 q 0,0.22225 0.0952,0.328083 0.0953,0.116417 0.254,0.116417 0.16933,0 0.254,-0.127 0.0953,-0.116417 0.0953,-0.328083 v -0.963084 h -0.0212 q -0.381,0.613834 -1.06891,0.613834 -0.4445,0 -0.762,-0.306917 -0.30692,-0.3175 -0.30692,-0.899583 v -3.196167 q 0,-0.582083 0.30692,-0.889 0.3175,-0.3175 0.762,-0.3175 0.3175,0 0.56091,0.127 0.254,0.127 0.39159,0.3175 0.14816,0.179917 0.17991,0.338667 h 0.0212 v -0.635 h 1.38642 v 5.630333 q 0,0.963083 -0.42334,1.344083 -0.41275,0.391583 -1.35466,0.391583 -0.68792,0 -1.06892,-0.137583 -0.37042,-0.137583 -0.53975,-0.465667 -0.15875,-0.328083 -0.15875,-0.941916 z m 0,-2.010833 q 0,0.243416 0.0741,0.359833 0.0741,0.105833 0.23284,0.105833 0.14816,0 0.26458,-0.116416 0.127,-0.127 0.127,-0.34925 v -2.307167 q 0,-0.22225 -0.127,-0.338667 -0.11642,-0.127 -0.26458,-0.127 -0.15875,0 -0.23284,0.116417 -0.0741,0.105833 -0.0741,0.34925 z" />
      <path
         id="path5314"
         style="stroke-width:0.26458332"
         d="m 123.52594,42.658308 h 2.37067 v 1.27 h -2.37067 z" />
      <path
         id="path5316"
         style="stroke-width:0.26458332"
         d="m 128.31589,38.467308 v 2.921 h 0.85725 v -2.921 h 1.50284 v 7.5565 h -1.50284 v -3.259667 h -0.85725 v 3.259667 h -1.50283 v -7.5565 z" />
      <path
         id="path5318"
         style="stroke-width:0.26458332"
         d="m 131.34653,42.055058 q 0,-0.836084 0.48683,-1.23825 0.48683,-0.402167 1.31233,-0.402167 0.8255,0 1.31234,0.402167 0.48683,0.402166 0.48683,1.23825 v 2.4765 q 0,0.836083 -0.48683,1.23825 -0.48684,0.402166 -1.31234,0.402166 -0.8255,0 -1.31233,-0.402166 -0.48683,-0.402167 -0.48683,-1.23825 z m 1.4605,2.465916 q 0,0.254 0.0741,0.359834 0.0741,0.105833 0.26458,0.105833 0.1905,0 0.26459,-0.105833 0.0741,-0.105834 0.0741,-0.359834 v -2.455333 q 0,-0.254 -0.0741,-0.359833 -0.0741,-0.105834 -0.26459,-0.105834 -0.1905,0 -0.26458,0.105834 -0.0741,0.105833 -0.0741,0.359833 z" />
      <path
         id="path5320"
         style="stroke-width:0.26458332"
         d="m 137.11957,46.023808 h -1.4605 v -7.5565 h 1.4605 z" />
      <path
         id="path5322"
         style="stroke-width:0.26458332"
         d="m 139.87917,41.959808 q 0,-0.15875 -0.10583,-0.254 -0.10583,-0.105834 -0.254,-0.105834 -0.15875,0 -0.254,0.08467 -0.0847,0.08467 -0.0847,0.243417 0,0.254 0.1905,0.41275 0.20109,0.148166 0.635,0.370416 0.41275,0.201084 0.67734,0.381 0.27516,0.179917 0.46566,0.497417 0.1905,0.306917 0.1905,0.762 0.0317,0.910167 -0.40216,1.36525 -0.43392,0.455083 -1.37584,0.455083 -0.91016,0 -1.34408,-0.41275 -0.43392,-0.423333 -0.43392,-1.195916 v -0.423334 h 1.397 v 0.232834 q 0,0.338666 0.0953,0.47625 0.0952,0.137583 0.28575,0.137583 0.16934,0 0.24342,-0.09525 0.0741,-0.105833 0.0741,-0.338667 0,-0.306916 -0.1905,-0.465666 -0.1905,-0.169334 -0.61383,-0.381 -0.40217,-0.1905 -0.66675,-0.370417 -0.254,-0.179917 -0.4445,-0.529167 -0.17992,-0.359833 -0.17992,-0.910166 0,-0.687917 0.4445,-1.0795 0.4445,-0.402167 1.3335,-0.402167 0.81492,0 1.22767,0.34925 0.42333,0.338667 0.42333,1.026583 v 0.508 h -1.3335 z" />
      <path
         id="path5324"
         style="stroke-width:0.26458332"
         d="m 143.5506,39.112891 v 1.449917 h 0.79375 v 1.227666 h -0.79375 v 2.2225 q 0,0.306917 0.0317,0.4445 0.0318,0.137584 0.10583,0.1905 0.0847,0.04233 0.254,0.04233 h 0.40217 v 1.3335 h -1.43933 q -0.39159,0 -0.60325,-0.243417 -0.20109,-0.254 -0.20109,-0.687917 v -3.302 h -0.46566 v -1.227666 h 0.46566 v -1.449917 z" />
      <path
         id="path5326"
         style="stroke-width:0.26458332"
         d="m 146.19147,44.499808 q 0,0.486833 0.39159,0.486833 0.381,0 0.381,-0.486833 v -0.296334 h 1.34408 v 0.486834 q 0,0.740833 -0.43392,1.11125 -0.43391,0.370416 -1.35466,0.370416 -0.92075,0 -1.35467,-0.370416 -0.43392,-0.370417 -0.43392,-1.11125 v -2.44475 q 0,-0.963084 0.40217,-1.397 0.41275,-0.433917 1.38642,-0.433917 0.97366,0 1.37583,0.433917 0.41275,0.433916 0.41275,1.397 v 1.407583 h -2.11667 z m 0.77259,-2.38125 q 0,-0.254 -0.10584,-0.381 -0.0952,-0.137584 -0.27516,-0.137584 -0.1905,0 -0.29634,0.137584 -0.0952,0.127 -0.0952,0.381 v 0.497416 h 0.77259 z" />
      <path
         id="path5328"
         style="stroke-width:0.26458332"
         d="m 149.09644,38.467308 h 1.3335 v 1.439333 h -1.3335 z m 1.397,7.5565 h -1.4605 v -5.461 h 1.4605 z" />
      <path
         id="path5330"
         style="stroke-width:0.26458332"
         d="m 152.71329,40.562808 v 0.635 h 0.0212 q 0.127,-0.328084 0.42334,-0.550334 0.29633,-0.232833 0.67733,-0.232833 0.49742,0 0.79375,0.328083 0.29633,0.3175 0.29633,0.98425 v 4.296834 h -1.44991 v -3.894667 q 0,-0.529167 -0.32809,-0.529167 -0.20108,0 -0.28575,0.137584 -0.0847,0.137583 -0.0847,0.497416 v 3.788834 h -1.4605 v -5.461 z" />
    </g>
  </g>
</svg>
